<?xml version="1.0" encoding="UTF-8"?>
<svg width="206px" height="28px" viewBox="0 0 206 28" version="1.1" xmlns="http://www.w3.org/2000/svg" xmlns:xlink="http://www.w3.org/1999/xlink">
    <!-- Generator: Sketch 53.2 (72643) - https://sketchapp.com -->
    <title>Group 5</title>
    <desc>Created with Sketch.</desc>
    <g id="Page-1" stroke="none" stroke-width="1" fill="none" fill-rule="evenodd">
        <g id="Konstellate---Collapsed" transform="translate(-619.000000, -30.000000)">
            <g id="Header">
                <g id="Logo" transform="translate(616.000000, 27.000000)">
                    <g id="Group-5">
                        <path d="M44.76,23 C44.6533328,23 44.5680003,22.9653337 44.504,22.896 C44.4399997,22.8266663 44.408,22.7386672 44.408,22.632 L44.408,12.184 C44.408,12.0666661 44.4399997,11.9733337 44.504,11.904 C44.5680003,11.8346663 44.6533328,11.8 44.76,11.8 L45.512,11.8 C45.6293339,11.8 45.7226663,11.8346663 45.792,11.904 C45.8613337,11.9733337 45.896,12.0666661 45.896,12.184 L45.896,16.168 L50.232,12.056 C50.4026675,11.8853325 50.6106654,11.8 50.856,11.8 L51.656,11.8 C51.7413338,11.8 51.8159997,11.8319997 51.88,11.896 C51.9440003,11.9600003 51.976,12.0346662 51.976,12.12 C51.976,12.2053338 51.9493336,12.2746664 51.896,12.328 L46.904,17.16 L52.232,22.456 C52.2853336,22.5200003 52.312,22.5946662 52.312,22.68 C52.312,22.7653338 52.2800003,22.8399997 52.216,22.904 C52.1519997,22.9680003 52.0773338,23 51.992,23 L51.16,23 C51.0106659,23 50.8933338,22.9760002 50.808,22.928 C50.7226662,22.8799998 50.6320005,22.818667 50.536,22.744 L45.896,18.216 L45.896,22.632 C45.896,22.7386672 45.858667,22.8266663 45.784,22.896 C45.709333,22.9653337 45.6186672,23 45.512,23 L44.76,23 Z M63.384,23.16 C61.9973264,23.16 60.9253371,22.7946703 60.168,22.064 C59.4106629,21.3333297 59.0106669,20.2320074 58.968,18.76 C58.9573333,18.4399984 58.952,17.9866696 58.952,17.4 C58.952,16.8133304 58.9573333,16.3653349 58.968,16.056 C59.0106669,14.6053261 59.4239961,13.5066704 60.208,12.76 C60.9920039,12.0133296 62.05066,11.64 63.384,11.64 C64.71734,11.64 65.7733294,12.0133296 66.552,12.76 C67.3306706,13.5066704 67.7413331,14.6053261 67.784,16.056 C67.8053334,16.6746698 67.816,17.1226653 67.816,17.4 C67.816,17.666668 67.8053334,18.1199968 67.784,18.76 C67.7413331,20.2320074 67.3440038,21.3333297 66.592,22.064 C65.8399962,22.7946703 64.7706736,23.16 63.384,23.16 Z M63.384,21.832 C64.2373376,21.832 64.9199974,21.5733359 65.432,21.056 C65.9440026,20.5386641 66.2213331,19.746672 66.264,18.68 C66.2853334,18.0399968 66.296,17.6133344 66.296,17.4 C66.296,17.1653322 66.2853334,16.7386698 66.264,16.12 C66.2213331,15.053328 65.9440026,14.2586693 65.432,13.736 C64.9199974,13.2133307 64.2373376,12.952 63.384,12.952 C62.5306624,12.952 61.8453359,13.2133307 61.328,13.736 C60.8106641,14.2586693 60.5360002,15.053328 60.504,16.12 C60.4933333,16.4293349 60.488,16.8559973 60.488,17.4 C60.488,17.933336 60.4933333,18.3599984 60.504,18.68 C60.5360002,19.746672 60.8079974,20.5386641 61.32,21.056 C61.8320026,21.5733359 62.5199957,21.832 63.384,21.832 Z M76.536,23 C76.4293328,23 76.3440003,22.9653337 76.28,22.896 C76.2159997,22.8266663 76.184,22.7386672 76.184,22.632 L76.184,12.184 C76.184,12.0666661 76.2159997,11.9733337 76.28,11.904 C76.3440003,11.8346663 76.4293328,11.8 76.536,11.8 L77.24,11.8 C77.3466672,11.8 77.4266664,11.8213331 77.48,11.864 C77.5333336,11.9066669 77.5866664,11.9599997 77.64,12.024 L83,20.28 L83,12.184 C83,12.0666661 83.0346663,11.9733337 83.104,11.904 C83.1733337,11.8346663 83.2613328,11.8 83.368,11.8 L84.088,11.8 C84.2053339,11.8 84.2986663,11.8346663 84.368,11.904 C84.4373337,11.9733337 84.472,12.0666661 84.472,12.184 L84.472,22.616 C84.472,22.7226672 84.4373337,22.813333 84.368,22.888 C84.2986663,22.962667 84.2106672,23 84.104,23 L83.384,23 C83.2026658,23 83.074667,22.9253341 83,22.776 L77.64,14.6 L77.64,22.632 C77.64,22.7386672 77.6053337,22.8266663 77.536,22.896 C77.4666663,22.9653337 77.3786672,23 77.272,23 L76.536,23 Z M96.84,23.16 C95.965329,23.16 95.2053366,23.0213347 94.56,22.744 C93.9146634,22.4666653 93.4240017,22.1013356 93.088,21.648 C92.7519983,21.1946644 92.5733334,20.7066693 92.552,20.184 C92.552,20.0986662 92.5839997,20.0240003 92.648,19.96 C92.7120003,19.8959997 92.7919995,19.864 92.888,19.864 L93.672,19.864 C93.864001,19.864 93.997333,19.9706656 94.072,20.184 C94.1680005,20.6320022 94.4426644,21.018665 94.896,21.344 C95.3493356,21.669335 95.9973291,21.832 96.84,21.832 C97.7466712,21.832 98.4239978,21.6720016 98.872,21.352 C99.3200022,21.0319984 99.544,20.5893362 99.544,20.024 C99.544,19.6613315 99.4346678,19.3626678 99.216,19.128 C98.9973322,18.8933322 98.6720022,18.6880009 98.24,18.512 C97.8079978,18.3359991 97.1600043,18.1200013 96.296,17.864 C95.4746626,17.6293322 94.8213358,17.378668 94.336,17.112 C93.8506642,16.845332 93.4853346,16.5173353 93.24,16.128 C92.9946654,15.7386647 92.872,15.2453363 92.872,14.648 C92.872,14.0719971 93.0266651,13.5573356 93.336,13.104 C93.6453349,12.6506644 94.0933304,12.2933346 94.68,12.032 C95.2666696,11.7706654 95.959996,11.64 96.76,11.64 C97.5920042,11.64 98.303997,11.7866652 98.896,12.08 C99.488003,12.3733348 99.9386651,12.7413311 100.248,13.184 C100.557335,13.6266689 100.722667,14.0719978 100.744,14.52 C100.744,14.6160005 100.712,14.6959997 100.648,14.76 C100.584,14.8240003 100.504,14.856 100.408,14.856 L99.608,14.856 C99.5226662,14.856 99.442667,14.8293336 99.368,14.776 C99.293333,14.7226664 99.2400002,14.6426672 99.208,14.536 C99.1439997,14.077331 98.8880022,13.6986682 98.44,13.4 C97.9919978,13.1013318 97.4320034,12.952 96.76,12.952 C96.034663,12.952 95.4586688,13.0933319 95.032,13.376 C94.6053312,13.6586681 94.392,14.0773306 94.392,14.632 C94.392,15.0053352 94.4906657,15.3093322 94.688,15.544 C94.8853343,15.7786678 95.1893313,15.9866658 95.6,16.168 C96.0106687,16.3493342 96.6106627,16.5573322 97.4,16.792 C98.3066712,17.0480013 99.0186641,17.3039987 99.536,17.56 C100.053336,17.8160013 100.439999,18.1333314 100.696,18.512 C100.952001,18.8906686 101.08,19.3786637 101.08,19.976 C101.08,20.9786717 100.69867,21.7599972 99.936,22.32 C99.1733295,22.8800028 98.1413398,23.16 96.84,23.16 Z M111.88,23 C111.773333,23 111.685334,22.9653337 111.616,22.896 C111.546666,22.8266663 111.512,22.7386672 111.512,22.632 L111.512,13.176 L108.424,13.176 C108.317333,13.176 108.229334,13.1413337 108.16,13.072 C108.090666,13.0026663 108.056,12.9146672 108.056,12.808 L108.056,12.184 C108.056,12.0666661 108.090666,11.9733337 108.16,11.904 C108.229334,11.8346663 108.317333,11.8 108.424,11.8 L116.104,11.8 C116.221334,11.8 116.312,11.8346663 116.376,11.904 C116.44,11.9733337 116.472,12.0666661 116.472,12.184 L116.472,12.808 C116.472,12.9146672 116.437334,13.0026663 116.368,13.072 C116.298666,13.1413337 116.210667,13.176 116.104,13.176 L113.032,13.176 L113.032,22.632 C113.032,22.7386672 112.994667,22.8266663 112.92,22.896 C112.845333,22.9653337 112.754667,23 112.648,23 L111.88,23 Z M124.648,23 C124.541333,23 124.456,22.9653337 124.392,22.896 C124.328,22.8266663 124.296,22.7386672 124.296,22.632 L124.296,12.184 C124.296,12.0666661 124.328,11.9733337 124.392,11.904 C124.456,11.8346663 124.541333,11.8 124.648,11.8 L131.224,11.8 C131.341334,11.8 131.434666,11.8346663 131.504,11.904 C131.573334,11.9733337 131.608,12.0666661 131.608,12.184 L131.608,12.76 C131.608,12.8666672 131.573334,12.9519997 131.504,13.016 C131.434666,13.0800003 131.341334,13.112 131.224,13.112 L125.768,13.112 L125.768,16.68 L130.872,16.68 C130.989334,16.68 131.082666,16.7146663 131.152,16.784 C131.221334,16.8533337 131.256,16.9466661 131.256,17.064 L131.256,17.608 C131.256,17.7146672 131.221334,17.8026663 131.152,17.872 C131.082666,17.9413337 130.989334,17.976 130.872,17.976 L125.768,17.976 L125.768,21.672 L131.352,21.672 C131.469334,21.672 131.562666,21.7066663 131.632,21.776 C131.701334,21.8453337 131.736,21.9386661 131.736,22.056 L131.736,22.632 C131.736,22.7386672 131.698667,22.8266663 131.624,22.896 C131.549333,22.9653337 131.458667,23 131.352,23 L124.648,23 Z M140.328,23 C140.221333,23 140.136,22.9653337 140.072,22.896 C140.008,22.8266663 139.976,22.7386672 139.976,22.632 L139.976,12.168 C139.976,12.0613328 140.008,11.9733337 140.072,11.904 C140.136,11.8346663 140.221333,11.8 140.328,11.8 L141.128,11.8 C141.234667,11.8 141.32,11.8346663 141.384,11.904 C141.448,11.9733337 141.48,12.0613328 141.48,12.168 L141.48,21.656 L146.824,21.656 C146.941334,21.656 147.034666,21.6906663 147.104,21.76 C147.173334,21.8293337 147.208,21.9173328 147.208,22.024 L147.208,22.632 C147.208,22.7386672 147.170667,22.8266663 147.096,22.896 C147.021333,22.9653337 146.930667,23 146.824,23 L140.328,23 Z M155.304,23 C155.197333,23 155.112,22.9653337 155.048,22.896 C154.984,22.8266663 154.952,22.7386672 154.952,22.632 L154.952,12.168 C154.952,12.0613328 154.984,11.9733337 155.048,11.904 C155.112,11.8346663 155.197333,11.8 155.304,11.8 L156.104,11.8 C156.210667,11.8 156.296,11.8346663 156.36,11.904 C156.424,11.9733337 156.456,12.0613328 156.456,12.168 L156.456,21.656 L161.8,21.656 C161.917334,21.656 162.010666,21.6906663 162.08,21.76 C162.149334,21.8293337 162.184,21.9173328 162.184,22.024 L162.184,22.632 C162.184,22.7386672 162.146667,22.8266663 162.072,22.896 C161.997333,22.9653337 161.906667,23 161.8,23 L155.304,23 Z M169.16,23 C169.074666,23 169,22.9680003 168.936,22.904 C168.872,22.8399997 168.84,22.7653338 168.84,22.68 L168.872,22.504 L172.84,12.152 C172.925334,11.9173322 173.095999,11.8 173.352,11.8 L174.376,11.8 C174.632001,11.8 174.802666,11.9173322 174.888,12.152 L178.856,22.504 L178.888,22.68 C178.888,22.7653338 178.853334,22.8399997 178.784,22.904 C178.714666,22.9680003 178.637334,23 178.552,23 L177.8,23 C177.693333,23 177.605334,22.970667 177.536,22.912 C177.466666,22.853333 177.421333,22.7920003 177.4,22.728 L176.504,20.424 L171.208,20.424 L170.328,22.728 C170.242666,22.9093342 170.109334,23 169.928,23 L169.16,23 Z M171.672,19.096 L176.056,19.096 L173.864,13.352 L171.672,19.096 Z M188.248,23 C188.141333,23 188.053334,22.9653337 187.984,22.896 C187.914666,22.8266663 187.88,22.7386672 187.88,22.632 L187.88,13.176 L184.792,13.176 C184.685333,13.176 184.597334,13.1413337 184.528,13.072 C184.458666,13.0026663 184.424,12.9146672 184.424,12.808 L184.424,12.184 C184.424,12.0666661 184.458666,11.9733337 184.528,11.904 C184.597334,11.8346663 184.685333,11.8 184.792,11.8 L192.472,11.8 C192.589334,11.8 192.68,11.8346663 192.744,11.904 C192.808,11.9733337 192.84,12.0666661 192.84,12.184 L192.84,12.808 C192.84,12.9146672 192.805334,13.0026663 192.736,13.072 C192.666666,13.1413337 192.578667,13.176 192.472,13.176 L189.4,13.176 L189.4,22.632 C189.4,22.7386672 189.362667,22.8266663 189.288,22.896 C189.213333,22.9653337 189.122667,23 189.016,23 L188.248,23 Z M201.016,23 C200.909333,23 200.824,22.9653337 200.76,22.896 C200.696,22.8266663 200.664,22.7386672 200.664,22.632 L200.664,12.184 C200.664,12.0666661 200.696,11.9733337 200.76,11.904 C200.824,11.8346663 200.909333,11.8 201.016,11.8 L207.592,11.8 C207.709334,11.8 207.802666,11.8346663 207.872,11.904 C207.941334,11.9733337 207.976,12.0666661 207.976,12.184 L207.976,12.76 C207.976,12.8666672 207.941334,12.9519997 207.872,13.016 C207.802666,13.0800003 207.709334,13.112 207.592,13.112 L202.136,13.112 L202.136,16.68 L207.24,16.68 C207.357334,16.68 207.450666,16.7146663 207.52,16.784 C207.589334,16.8533337 207.624,16.9466661 207.624,17.064 L207.624,17.608 C207.624,17.7146672 207.589334,17.8026663 207.52,17.872 C207.450666,17.9413337 207.357334,17.976 207.24,17.976 L202.136,17.976 L202.136,21.672 L207.72,21.672 C207.837334,21.672 207.930666,21.7066663 208,21.776 C208.069334,21.8453337 208.104,21.9386661 208.104,22.056 L208.104,22.632 C208.104,22.7386672 208.066667,22.8266663 207.992,22.896 C207.917333,22.9653337 207.826667,23 207.72,23 L201.016,23 Z" id="KONSTELLATE" fill="#FFFFFF" fill-rule="nonzero"></path>
                        <g id="Group" transform="translate(17.000000, 17.000000) rotate(-225.000000) translate(-17.000000, -17.000000) translate(5.000000, 5.000000)">
                            <path d="M7,8 C4.33333333,13.3333333 3.1379129,17.461031 3.41373871,20.3830929 C5.59280779,22.6146394 8.63461975,24 12,24 C18.627417,24 24,18.627417 24,12 C24,5.372583 18.627417,0 12,0 C5.372583,0 0,5.372583 0,12" id="Path" stroke="#00A2FF" stroke-width="3"></path>
                            <path d="M11,11 C10.3333333,13.6666667 9.73324056,15.7692719 9.19972169,17.3078156 C10.0356756,17.7497592 10.9886144,18 12,18 C15.3137085,18 18,15.3137085 18,12 C18,8.6862915 15.3137085,6 12,6 C8.6862915,6 6,8.6862915 6,12" id="Path" stroke="#00A2FF" stroke-width="3"></path>
                            <circle id="Oval" fill="#00A2FF" cx="12" cy="12" r="2"></circle>
                        </g>
                    </g>
                </g>
            </g>
        </g>
    </g>
</svg>